<?xml version="1.0" standalone="no"?>
<!DOCTYPE svg PUBLIC "-//W3C//DTD SVG 20010904//EN"
 "http://www.w3.org/TR/2001/REC-SVG-20010904/DTD/svg10.dtd">
<svg version="1.0" xmlns="http://www.w3.org/2000/svg"
 width="188.000000pt" height="188.000000pt" viewBox="0 0 188.000000 188.000000"
 preserveAspectRatio="xMidYMid meet">

<g transform="translate(0.000000,188.000000) scale(0.100000,-0.100000)"
fill="#000000" stroke="none">
<path d="M0 940 c0 -757 2 -940 13 -940 8 0 51 112 111 288 134 393 394 1157
472 1386 35 104 64 193 64 198 0 4 -148 8 -330 8 l-330 0 0 -940z"/>
<path d="M910 1875 c0 -5 97 -292 275 -810 107 -312 151 -441 308 -900 l54
-160 167 -3 166 -2 0 940 0 940 -485 0 c-267 0 -485 -2 -485 -5z m672 -106
l17 -44 0 48 c1 26 6 47 11 47 6 0 10 -22 10 -50 0 -46 -2 -50 -24 -50 -13 0
-26 6 -29 13 -3 9 -9 9 -27 -1 -12 -7 -24 -12 -26 -9 -9 8 29 98 40 94 6 -2
19 -24 28 -48z m84 26 c8 -32 20 -32 28 1 10 40 31 22 34 -29 2 -37 0 -47 -12
-47 -10 0 -13 6 -10 15 7 18 -12 20 -19 3 -4 -10 -8 -9 -16 2 -9 13 -11 13
-11 -2 0 -10 -4 -18 -10 -18 -5 0 -10 23 -10 50 0 53 15 67 26 25z m131 8 c3
-7 -3 -9 -16 -6 -30 8 -26 -12 5 -26 36 -16 28 -45 -14 -49 -18 -2 -32 1 -32
7 0 6 10 11 23 12 l22 0 -22 16 c-23 15 -30 43 -16 57 11 10 46 3 50 -11z"/>
<path d="M777 1690 c-3 -8 -25 -80 -47 -160 -48 -168 -67 -229 -200 -640 -241
-749 -280 -871 -280 -880 0 -7 187 -10 530 -10 447 0 530 2 530 14 0 14 -132
436 -287 916 -47 146 -114 360 -149 475 -94 310 -91 302 -97 285z"/>
</g>
</svg>
